<?xml version="1.0" encoding="UTF-8" standalone="no"?><svg xmlns="http://www.w3.org/2000/svg" xmlns:xlink="http://www.w3.org/1999/xlink" contentStyleType="text/css" height="507px" preserveAspectRatio="none" style="width:470px;height:507px;background:#FFFFFF;" version="1.1" viewBox="0 0 470 507" width="470px" zoomAndPan="magnify"><defs/><g><!--class UI--><g id="elem_UI"><rect codeLine="3" fill="#F1F1F1" height="129.4844" id="UI" rx="2.5" ry="2.5" style="stroke:#181818;stroke-width:0.5;" width="215" x="248.5" y="7"/><ellipse cx="320.75" cy="23" fill="#ADD1B2" rx="11" ry="11" style="stroke:#181818;stroke-width:1.0;"/><path d="M323.0938,18.6719 C322.1563,18.2344 321.5625,18.0938 320.6875,18.0938 C318.0625,18.0938 316.0625,20.1719 316.0625,22.8906 L316.0625,24.0156 C316.0625,26.5938 318.1719,28.4844 321.0625,28.4844 C322.2813,28.4844 323.4375,28.1875 324.1875,27.6406 C324.7656,27.2344 325.0938,26.7813 325.0938,26.3906 C325.0938,25.9375 324.7031,25.5469 324.2344,25.5469 C324.0156,25.5469 323.8125,25.625 323.625,25.8125 C323.1719,26.2969 323.1719,26.2969 322.9844,26.3906 C322.5625,26.6563 321.875,26.7813 321.1094,26.7813 C319.0625,26.7813 317.7656,25.6875 317.7656,23.9844 L317.7656,22.8906 C317.7656,21.1094 319.0156,19.7969 320.75,19.7969 C321.3281,19.7969 321.9375,19.9531 322.4063,20.2031 C322.8906,20.4844 323.0625,20.7031 323.1563,21.1094 C323.2188,21.5156 323.25,21.6406 323.3906,21.7656 C323.5313,21.9063 323.7656,22.0156 323.9844,22.0156 C324.25,22.0156 324.5156,21.875 324.6875,21.6563 C324.7969,21.5 324.8281,21.3125 324.8281,20.8906 L324.8281,19.4688 C324.8281,19.0313 324.8125,18.9063 324.7188,18.75 C324.5625,18.4844 324.2813,18.3438 323.9844,18.3438 C323.6875,18.3438 323.4844,18.4375 323.2656,18.75 L323.0938,18.6719 Z " fill="#000000"/><text fill="#000000" font-family="sans-serif" font-size="14" lengthAdjust="spacing" textLength="62" x="341.25" y="27.8467">AdvPage</text><line style="stroke:#181818;stroke-width:0.5;" x1="249.5" x2="462.5" y1="39" y2="39"/><rect fill="none" height="6" style="stroke:#C82930;stroke-width:1.0;" width="6" x="256.5" y="49.6484"/><text fill="#000000" font-family="sans-serif" font-size="14" lengthAdjust="spacing" textLength="65" x="268.5" y="55.9951">Adv[] ads</text><line style="stroke:#181818;stroke-width:0.5;" x1="249.5" x2="462.5" y1="63.2969" y2="63.2969"/><ellipse cx="259.5" cy="76.9453" fill="#84BE84" rx="3" ry="3" style="stroke:#038048;stroke-width:1.0;"/><text fill="#000000" font-family="sans-serif" font-size="14" lengthAdjust="spacing" textLength="70" x="268.5" y="80.292">advPage()</text><ellipse cx="259.5" cy="93.2422" fill="#84BE84" rx="3" ry="3" style="stroke:#038048;stroke-width:1.0;"/><text fill="#000000" font-family="sans-serif" font-size="14" lengthAdjust="spacing" textLength="168" x="268.5" y="96.5889">onClickButtonAddAdv()</text><ellipse cx="259.5" cy="109.5391" fill="#84BE84" rx="3" ry="3" style="stroke:#038048;stroke-width:1.0;"/><text fill="#000000" font-family="sans-serif" font-size="14" lengthAdjust="spacing" textLength="189" x="268.5" y="112.8857">onClickButtonDeleteAdv()</text><ellipse cx="259.5" cy="125.8359" fill="#84BE84" rx="3" ry="3" style="stroke:#038048;stroke-width:1.0;"/><text fill="#000000" font-family="sans-serif" font-size="14" lengthAdjust="spacing" textLength="169" x="268.5" y="129.1826">onClickButtonEditAdv()</text></g><!--class Controller--><g id="elem_Controller"><rect codeLine="11" fill="#F1F1F1" height="105.1875" id="Controller" rx="2.5" ry="2.5" style="stroke:#181818;stroke-width:0.5;" width="169" x="271.5" y="213"/><ellipse cx="303.15" cy="229" fill="#ADD1B2" rx="11" ry="11" style="stroke:#181818;stroke-width:1.0;"/><path d="M305.4938,224.6719 C304.5563,224.2344 303.9625,224.0938 303.0875,224.0938 C300.4625,224.0938 298.4625,226.1719 298.4625,228.8906 L298.4625,230.0156 C298.4625,232.5938 300.5719,234.4844 303.4625,234.4844 C304.6813,234.4844 305.8375,234.1875 306.5875,233.6406 C307.1656,233.2344 307.4938,232.7813 307.4938,232.3906 C307.4938,231.9375 307.1031,231.5469 306.6344,231.5469 C306.4156,231.5469 306.2125,231.625 306.025,231.8125 C305.5719,232.2969 305.5719,232.2969 305.3844,232.3906 C304.9625,232.6563 304.275,232.7813 303.5094,232.7813 C301.4625,232.7813 300.1656,231.6875 300.1656,229.9844 L300.1656,228.8906 C300.1656,227.1094 301.4156,225.7969 303.15,225.7969 C303.7281,225.7969 304.3375,225.9531 304.8063,226.2031 C305.2906,226.4844 305.4625,226.7031 305.5563,227.1094 C305.6188,227.5156 305.65,227.6406 305.7906,227.7656 C305.9313,227.9063 306.1656,228.0156 306.3844,228.0156 C306.65,228.0156 306.9156,227.875 307.0875,227.6563 C307.1969,227.5 307.2281,227.3125 307.2281,226.8906 L307.2281,225.4688 C307.2281,225.0313 307.2125,224.9063 307.1188,224.75 C306.9625,224.4844 306.6813,224.3438 306.3844,224.3438 C306.0875,224.3438 305.8844,224.4375 305.6656,224.75 L305.4938,224.6719 Z " fill="#000000"/><text fill="#000000" font-family="sans-serif" font-size="14" lengthAdjust="spacing" textLength="100" x="320.85" y="233.8467">AdvController</text><line style="stroke:#181818;stroke-width:0.5;" x1="272.5" x2="439.5" y1="245" y2="245"/><ellipse cx="282.5" cy="258.6484" fill="#84BE84" rx="3" ry="3" style="stroke:#038048;stroke-width:1.0;"/><text fill="#000000" font-family="sans-serif" font-size="14" lengthAdjust="spacing" textLength="143" x="291.5" y="261.9951">advPageController()</text><ellipse cx="282.5" cy="274.9453" fill="#84BE84" rx="3" ry="3" style="stroke:#038048;stroke-width:1.0;"/><text fill="#000000" font-family="sans-serif" font-size="14" lengthAdjust="spacing" textLength="63" x="291.5" y="278.292">addAdv()</text><ellipse cx="282.5" cy="291.2422" fill="#84BE84" rx="3" ry="3" style="stroke:#038048;stroke-width:1.0;"/><text fill="#000000" font-family="sans-serif" font-size="14" lengthAdjust="spacing" textLength="84" x="291.5" y="294.5889">deleteAdv()</text><ellipse cx="282.5" cy="307.5391" fill="#84BE84" rx="3" ry="3" style="stroke:#038048;stroke-width:1.0;"/><text fill="#000000" font-family="sans-serif" font-size="14" lengthAdjust="spacing" textLength="66" x="291.5" y="310.8857">editAdv()</text></g><!--class Facade--><g id="elem_Facade"><rect codeLine="18" fill="#F1F1F1" height="105.1875" id="Facade" rx="2.5" ry="2.5" style="stroke:#181818;stroke-width:0.5;" width="120" x="131" y="395"/><ellipse cx="150.95" cy="411" fill="#ADD1B2" rx="11" ry="11" style="stroke:#181818;stroke-width:1.0;"/><path d="M153.2938,406.6719 C152.3563,406.2344 151.7625,406.0938 150.8875,406.0938 C148.2625,406.0938 146.2625,408.1719 146.2625,410.8906 L146.2625,412.0156 C146.2625,414.5938 148.3719,416.4844 151.2625,416.4844 C152.4813,416.4844 153.6375,416.1875 154.3875,415.6406 C154.9656,415.2344 155.2938,414.7813 155.2938,414.3906 C155.2938,413.9375 154.9031,413.5469 154.4344,413.5469 C154.2156,413.5469 154.0125,413.625 153.825,413.8125 C153.3719,414.2969 153.3719,414.2969 153.1844,414.3906 C152.7625,414.6563 152.075,414.7813 151.3094,414.7813 C149.2625,414.7813 147.9656,413.6875 147.9656,411.9844 L147.9656,410.8906 C147.9656,409.1094 149.2156,407.7969 150.95,407.7969 C151.5281,407.7969 152.1375,407.9531 152.6063,408.2031 C153.0906,408.4844 153.2625,408.7031 153.3563,409.1094 C153.4188,409.5156 153.45,409.6406 153.5906,409.7656 C153.7313,409.9063 153.9656,410.0156 154.1844,410.0156 C154.45,410.0156 154.7156,409.875 154.8875,409.6563 C154.9969,409.5 155.0281,409.3125 155.0281,408.8906 L155.0281,407.4688 C155.0281,407.0313 155.0125,406.9063 154.9188,406.75 C154.7625,406.4844 154.4813,406.3438 154.1844,406.3438 C153.8875,406.3438 153.6844,406.4375 153.4656,406.75 L153.2938,406.6719 Z " fill="#000000"/><text fill="#000000" font-family="sans-serif" font-size="14" lengthAdjust="spacing" textLength="77" x="166.05" y="415.8467">AdvFacade</text><line style="stroke:#181818;stroke-width:0.5;" x1="132" x2="250" y1="427" y2="427"/><ellipse cx="142" cy="440.6484" fill="#84BE84" rx="3" ry="3" style="stroke:#038048;stroke-width:1.0;"/><text fill="#000000" font-family="sans-serif" font-size="14" lengthAdjust="spacing" textLength="94" x="151" y="443.9951">getAdvDAO()</text><ellipse cx="142" cy="456.9453" fill="#84BE84" rx="3" ry="3" style="stroke:#038048;stroke-width:1.0;"/><text fill="#000000" font-family="sans-serif" font-size="14" lengthAdjust="spacing" textLength="63" x="151" y="460.292">addAdv()</text><ellipse cx="142" cy="473.2422" fill="#84BE84" rx="3" ry="3" style="stroke:#038048;stroke-width:1.0;"/><text fill="#000000" font-family="sans-serif" font-size="14" lengthAdjust="spacing" textLength="84" x="151" y="476.5889">deleteAdv()</text><ellipse cx="142" cy="489.5391" fill="#84BE84" rx="3" ry="3" style="stroke:#038048;stroke-width:1.0;"/><text fill="#000000" font-family="sans-serif" font-size="14" lengthAdjust="spacing" textLength="66" x="151" y="492.8857">editAdv()</text></g><!--class DAO--><g id="elem_DAO"><rect codeLine="25" fill="#F1F1F1" height="105.1875" id="DAO" rx="2.5" ry="2.5" style="stroke:#181818;stroke-width:0.5;" width="114" x="7" y="213"/><ellipse cx="32.35" cy="229" fill="#ADD1B2" rx="11" ry="11" style="stroke:#181818;stroke-width:1.0;"/><path d="M34.6938,224.6719 C33.7563,224.2344 33.1625,224.0938 32.2875,224.0938 C29.6625,224.0938 27.6625,226.1719 27.6625,228.8906 L27.6625,230.0156 C27.6625,232.5938 29.7719,234.4844 32.6625,234.4844 C33.8813,234.4844 35.0375,234.1875 35.7875,233.6406 C36.3656,233.2344 36.6938,232.7813 36.6938,232.3906 C36.6938,231.9375 36.3031,231.5469 35.8344,231.5469 C35.6156,231.5469 35.4125,231.625 35.225,231.8125 C34.7719,232.2969 34.7719,232.2969 34.5844,232.3906 C34.1625,232.6563 33.475,232.7813 32.7094,232.7813 C30.6625,232.7813 29.3656,231.6875 29.3656,229.9844 L29.3656,228.8906 C29.3656,227.1094 30.6156,225.7969 32.35,225.7969 C32.9281,225.7969 33.5375,225.9531 34.0063,226.2031 C34.4906,226.4844 34.6625,226.7031 34.7563,227.1094 C34.8188,227.5156 34.85,227.6406 34.9906,227.7656 C35.1313,227.9063 35.3656,228.0156 35.5844,228.0156 C35.85,228.0156 36.1156,227.875 36.2875,227.6563 C36.3969,227.5 36.4281,227.3125 36.4281,226.8906 L36.4281,225.4688 C36.4281,225.0313 36.4125,224.9063 36.3188,224.75 C36.1625,224.4844 35.8813,224.3438 35.5844,224.3438 C35.2875,224.3438 35.0844,224.4375 34.8656,224.75 L34.6938,224.6719 Z " fill="#000000"/><text fill="#000000" font-family="sans-serif" font-size="14" lengthAdjust="spacing" textLength="59" x="48.65" y="233.8467">AdvDAO</text><line style="stroke:#181818;stroke-width:0.5;" x1="8" x2="120" y1="245" y2="245"/><ellipse cx="18" cy="258.6484" fill="#84BE84" rx="3" ry="3" style="stroke:#038048;stroke-width:1.0;"/><text fill="#000000" font-family="sans-serif" font-size="14" lengthAdjust="spacing" textLength="62" x="27" y="261.9951">getAdv()</text><ellipse cx="18" cy="274.9453" fill="#84BE84" rx="3" ry="3" style="stroke:#038048;stroke-width:1.0;"/><text fill="#000000" font-family="sans-serif" font-size="14" lengthAdjust="spacing" textLength="84" x="27" y="278.292">createAdv()</text><ellipse cx="18" cy="291.2422" fill="#84BE84" rx="3" ry="3" style="stroke:#038048;stroke-width:1.0;"/><text fill="#000000" font-family="sans-serif" font-size="14" lengthAdjust="spacing" textLength="88" x="27" y="294.5889">updateAdv()</text><ellipse cx="18" cy="307.5391" fill="#84BE84" rx="3" ry="3" style="stroke:#038048;stroke-width:1.0;"/><text fill="#000000" font-family="sans-serif" font-size="14" lengthAdjust="spacing" textLength="84" x="27" y="310.8857">deleteAdv()</text></g><!--class AbstractFactory--><g id="elem_AbstractFactory"><rect codeLine="34" fill="#F1F1F1" height="72.5938" id="AbstractFactory" rx="2.5" ry="2.5" style="stroke:#181818;stroke-width:0.5;" width="149" x="27.5" y="35"/><ellipse cx="42.5" cy="51" fill="#ADD1B2" rx="11" ry="11" style="stroke:#181818;stroke-width:1.0;"/><path d="M44.8438,46.6719 C43.9063,46.2344 43.3125,46.0938 42.4375,46.0938 C39.8125,46.0938 37.8125,48.1719 37.8125,50.8906 L37.8125,52.0156 C37.8125,54.5938 39.9219,56.4844 42.8125,56.4844 C44.0313,56.4844 45.1875,56.1875 45.9375,55.6406 C46.5156,55.2344 46.8438,54.7813 46.8438,54.3906 C46.8438,53.9375 46.4531,53.5469 45.9844,53.5469 C45.7656,53.5469 45.5625,53.625 45.375,53.8125 C44.9219,54.2969 44.9219,54.2969 44.7344,54.3906 C44.3125,54.6563 43.625,54.7813 42.8594,54.7813 C40.8125,54.7813 39.5156,53.6875 39.5156,51.9844 L39.5156,50.8906 C39.5156,49.1094 40.7656,47.7969 42.5,47.7969 C43.0781,47.7969 43.6875,47.9531 44.1563,48.2031 C44.6406,48.4844 44.8125,48.7031 44.9063,49.1094 C44.9688,49.5156 45,49.6406 45.1406,49.7656 C45.2813,49.9063 45.5156,50.0156 45.7344,50.0156 C46,50.0156 46.2656,49.875 46.4375,49.6563 C46.5469,49.5 46.5781,49.3125 46.5781,48.8906 L46.5781,47.4688 C46.5781,47.0313 46.5625,46.9063 46.4688,46.75 C46.3125,46.4844 46.0313,46.3438 45.7344,46.3438 C45.4375,46.3438 45.2344,46.4375 45.0156,46.75 L44.8438,46.6719 Z " fill="#000000"/><text fill="#000000" font-family="sans-serif" font-size="14" lengthAdjust="spacing" textLength="117" x="56.5" y="55.8467">AbstractFactory</text><line style="stroke:#181818;stroke-width:0.5;" x1="28.5" x2="175.5" y1="67" y2="67"/><ellipse cx="38.5" cy="80.6484" fill="#84BE84" rx="3" ry="3" style="stroke:#038048;stroke-width:1.0;"/><text fill="#000000" font-family="sans-serif" font-size="14" lengthAdjust="spacing" textLength="94" x="47.5" y="83.9951">getAdvDAO()</text><ellipse cx="38.5" cy="96.9453" fill="#84BE84" rx="3" ry="3" style="stroke:#038048;stroke-width:1.0;"/><text fill="#000000" font-family="sans-serif" font-size="14" lengthAdjust="spacing" textLength="96" x="47.5" y="100.292">getInstance()</text></g><!--link UI to Controller--><g id="link_UI_Controller"><path codeLine="39" d="M356,136.167 C356,159.305 356,185.281 356,207.778 " fill="none" id="UI-to-Controller" style="stroke:#181818;stroke-width:1.0;"/><polygon fill="#181818" points="356,212.821,360,203.821,356,207.821,352,203.821,356,212.821" style="stroke:#181818;stroke-width:1.0;"/><polygon fill="#000000" points="361,179.5664,363.9389,170.5213,358.0611,170.5213,361,179.5664" style="stroke:#000000;stroke-width:1.0;"/><text fill="#000000" font-family="sans-serif" font-size="13" lengthAdjust="spacing" textLength="83" x="370" y="179.0669">controlled by</text><text fill="#000000" font-family="sans-serif" font-size="13" lengthAdjust="spacing" textLength="8" x="347.5375" y="156.5579">1</text><text fill="#000000" font-family="sans-serif" font-size="13" lengthAdjust="spacing" textLength="8" x="347.4625" y="201.7977">1</text></g><!--link Controller to Facade--><g id="link_Controller_Facade"><path codeLine="40" d="M308.718,318.081 C287.746,340.958 263.038,367.913 241.686,391.206 " fill="none" id="Controller-to-Facade" style="stroke:#181818;stroke-width:1.0;"/><polygon fill="#181818" points="238.289,394.912,247.3191,390.9805,241.6676,391.2262,241.4219,385.5747,238.289,394.912" style="stroke:#181818;stroke-width:1.0;"/><polygon fill="#000000" points="280.6214,360.2522,288.8998,355.5705,284.5669,351.5987,280.6214,360.2522" style="stroke:#000000;stroke-width:1.0;"/><text fill="#000000" font-family="sans-serif" font-size="13" lengthAdjust="spacing" textLength="30" x="293" y="361.0669">uses</text><text fill="#000000" font-family="sans-serif" font-size="13" lengthAdjust="spacing" textLength="8" x="293.827" y="338.2176">1</text><text fill="#000000" font-family="sans-serif" font-size="13" lengthAdjust="spacing" textLength="8" x="236.106" y="383.9009">1</text></g><!--reverse link AbstractFactory to Facade--><g id="link_AbstractFactory_Facade"><path codeLine="41" d="M128.758,112.754 C138.178,128.716 147.924,147.624 154,166 C179.484,243.066 187.485,337.518 189.955,394.798 " fill="none" id="AbstractFactory-backto-Facade" style="stroke:#181818;stroke-width:1.0;"/><polygon fill="#181818" points="126.113,108.333,127.302,118.1098,128.6804,112.6235,134.1668,114.0019,126.113,108.333" style="stroke:#181818;stroke-width:1.0;"/><polygon fill="#000000" points="188.9398,260.6801,187.9856,270.1427,193.7298,268.8963,188.9398,260.6801" style="stroke:#000000;stroke-width:1.0;"/><text fill="#000000" font-family="sans-serif" font-size="13" lengthAdjust="spacing" textLength="30" x="199" y="270.0669">uses</text><text fill="#000000" font-family="sans-serif" font-size="13" lengthAdjust="spacing" textLength="8" x="121.4442" y="127.7872">1</text><text fill="#000000" font-family="sans-serif" font-size="13" lengthAdjust="spacing" textLength="8" x="181.2771" y="383.7716">1</text></g><!--link AbstractFactory to DAO--><g id="link_AbstractFactory_DAO"><path codeLine="42" d="M94.9415,108.164 C89.4203,136.061 81.6366,175.389 75.2576,207.62 " fill="none" id="AbstractFactory-to-DAO" style="stroke:#181818;stroke-width:1.0;"/><polygon fill="#181818" points="74.2464,212.729,79.9187,204.6776,75.2178,207.8243,72.0711,203.1234,74.2464,212.729" style="stroke:#181818;stroke-width:1.0;"/><polygon fill="#000000" points="87.0293,179.4713,91.6684,171.1689,85.9023,170.0277,87.0293,179.4713" style="stroke:#000000;stroke-width:1.0;"/><text fill="#000000" font-family="sans-serif" font-size="13" lengthAdjust="spacing" textLength="48" x="97" y="179.0669">creates</text><text fill="#000000" font-family="sans-serif" font-size="13" lengthAdjust="spacing" textLength="8" x="85.1099" y="127.5902">1</text><text fill="#000000" font-family="sans-serif" font-size="13" lengthAdjust="spacing" textLength="8" x="67.0467" y="202.0702">1</text></g><!--reverse link DAO to Facade--><g id="link_DAO_Facade"><path codeLine="43" d="M93.2414,322.445 C101.3664,336.673 110.565,351.694 120,365 C127.055,374.95 135.105,385.101 143.19,394.71 " fill="none" id="DAO-backto-Facade" style="stroke:#181818;stroke-width:1.0;"/><polygon fill="#181818" points="90.7553,318.058,91.711,327.8604,93.2198,322.4085,98.6717,323.9172,90.7553,318.058" style="stroke:#181818;stroke-width:1.0;"/><polygon fill="#000000" points="122.1571,352.4533,124.8824,361.565,129.7176,358.223,122.1571,352.4533" style="stroke:#000000;stroke-width:1.0;"/><text fill="#000000" font-family="sans-serif" font-size="13" lengthAdjust="spacing" textLength="30" x="134" y="361.0669">uses</text><text fill="#000000" font-family="sans-serif" font-size="13" lengthAdjust="spacing" textLength="8" x="85.813" y="338.1915">1</text><text fill="#000000" font-family="sans-serif" font-size="13" lengthAdjust="spacing" textLength="8" x="128.5518" y="384.0487">1</text></g><!--SRC=[fP4zJyGm38Rt_0gh4mXrO6KugTo1T1CiJ8Z1JQoZ8arEIOfK8VuxRj9SFtITo9BOVlFuZVFPA09gpw67bjgQd1T2QlGUYafzl-A92a0FRqVu4S2hvEpx1w3oCRp39BgvJQ4rUzt8hySk16igfLXzjNGWJO6sga-g2QdsEtUpjoOugpMvw6aAHs_Pp5J8T5muKUlcTBtVCqfKwVtfcFkSQ90VgfV_yHaGuRmpUOxE5wKZN92wirecvhqcUbNxu506jXsiwpTzS-9eV40ZAPdZVqwhk2-WB7VfC0tq0NOWSwIWxiNi5nPtqiG6VUV9Yt605tJ7kk6mSdhHhr-mjiIFY5xYWBRnesn0_W40]--></g></svg>