<?xml version="1.0" encoding="UTF-8" standalone="no"?><svg xmlns="http://www.w3.org/2000/svg" xmlns:xlink="http://www.w3.org/1999/xlink" contentStyleType="text/css" height="1593px" preserveAspectRatio="none" style="width:848px;height:1593px;background:#FFFFFF;" version="1.1" viewBox="0 0 848 1593" width="848px" zoomAndPan="magnify"><defs/><g><rect fill="#FFFFFF" height="1347.9766" style="stroke:#181818;stroke-width:1.0;" width="10" x="289.5" y="155.5625"/><rect fill="#FFFFFF" height="1318.8438" style="stroke:#181818;stroke-width:1.0;" width="10" x="447.5" y="184.6953"/><rect fill="#FFFFFF" height="1144.0469" style="stroke:#181818;stroke-width:1.0;" width="10" x="561.5" y="359.4922"/><rect fill="#FFFFFF" height="1114.9141" style="stroke:#181818;stroke-width:1.0;" width="10" x="682.5" y="388.625"/><rect fill="#FFFFFF" height="1056.6484" style="stroke:#181818;stroke-width:1.0;" width="10" x="794.5" y="446.8906"/><line style="stroke:#181818;stroke-width:0.5;stroke-dasharray:5.0,5.0;" x1="23" x2="23" y1="81.2969" y2="1512.5391"/><line style="stroke:#181818;stroke-width:0.5;stroke-dasharray:5.0,5.0;" x1="294.5" x2="294.5" y1="81.2969" y2="1512.5391"/><line style="stroke:#181818;stroke-width:0.5;stroke-dasharray:5.0,5.0;" x1="452.5" x2="452.5" y1="81.2969" y2="1512.5391"/><line style="stroke:#181818;stroke-width:0.5;stroke-dasharray:5.0,5.0;" x1="566" x2="566" y1="81.2969" y2="1512.5391"/><line style="stroke:#181818;stroke-width:0.5;stroke-dasharray:5.0,5.0;" x1="687" x2="687" y1="81.2969" y2="1512.5391"/><line style="stroke:#181818;stroke-width:0.5;stroke-dasharray:5.0,5.0;" x1="799" x2="799" y1="81.2969" y2="1512.5391"/><text fill="#000000" font-family="sans-serif" font-size="14" lengthAdjust="spacing" textLength="31" x="5" y="77.9951">User</text><ellipse cx="23.5" cy="13.5" fill="#E2E2F0" rx="8" ry="8" style="stroke:#181818;stroke-width:0.5;"/><path d="M23.5,21.5 L23.5,48.5 M10.5,29.5 L36.5,29.5 M23.5,48.5 L10.5,63.5 M23.5,48.5 L36.5,63.5 " fill="none" style="stroke:#181818;stroke-width:0.5;"/><text fill="#000000" font-family="sans-serif" font-size="14" lengthAdjust="spacing" textLength="31" x="5" y="1524.5342">User</text><ellipse cx="23.5" cy="1536.3359" fill="#E2E2F0" rx="8" ry="8" style="stroke:#181818;stroke-width:0.5;"/><path d="M23.5,1544.3359 L23.5,1571.3359 M10.5,1552.3359 L36.5,1552.3359 M23.5,1571.3359 L10.5,1586.3359 M23.5,1571.3359 L36.5,1586.3359 " fill="none" style="stroke:#181818;stroke-width:0.5;"/><rect fill="#E2E2F0" height="30.2969" rx="2.5" ry="2.5" style="stroke:#181818;stroke-width:0.5;" width="76" x="256.5" y="50"/><text fill="#000000" font-family="sans-serif" font-size="14" lengthAdjust="spacing" textLength="62" x="263.5" y="69.9951">AdvPage</text><rect fill="#E2E2F0" height="30.2969" rx="2.5" ry="2.5" style="stroke:#181818;stroke-width:0.5;" width="76" x="256.5" y="1511.5391"/><text fill="#000000" font-family="sans-serif" font-size="14" lengthAdjust="spacing" textLength="62" x="263.5" y="1531.5342">AdvPage</text><rect fill="#E2E2F0" height="30.2969" rx="2.5" ry="2.5" style="stroke:#181818;stroke-width:0.5;" width="114" x="395.5" y="50"/><text fill="#000000" font-family="sans-serif" font-size="14" lengthAdjust="spacing" textLength="100" x="402.5" y="69.9951">AdvController</text><rect fill="#E2E2F0" height="30.2969" rx="2.5" ry="2.5" style="stroke:#181818;stroke-width:0.5;" width="114" x="395.5" y="1511.5391"/><text fill="#000000" font-family="sans-serif" font-size="14" lengthAdjust="spacing" textLength="100" x="402.5" y="1531.5342">AdvController</text><rect fill="#E2E2F0" height="30.2969" rx="2.5" ry="2.5" style="stroke:#181818;stroke-width:0.5;" width="91" x="521" y="50"/><text fill="#000000" font-family="sans-serif" font-size="14" lengthAdjust="spacing" textLength="77" x="528" y="69.9951">AdvFacade</text><rect fill="#E2E2F0" height="30.2969" rx="2.5" ry="2.5" style="stroke:#181818;stroke-width:0.5;" width="91" x="521" y="1511.5391"/><text fill="#000000" font-family="sans-serif" font-size="14" lengthAdjust="spacing" textLength="77" x="528" y="1531.5342">AdvFacade</text><rect fill="#E2E2F0" height="30.2969" rx="2.5" ry="2.5" style="stroke:#181818;stroke-width:0.5;" width="131" x="622" y="50"/><text fill="#000000" font-family="sans-serif" font-size="14" lengthAdjust="spacing" textLength="117" x="629" y="69.9951">AbstractFactory</text><rect fill="#E2E2F0" height="30.2969" rx="2.5" ry="2.5" style="stroke:#181818;stroke-width:0.5;" width="131" x="622" y="1511.5391"/><text fill="#000000" font-family="sans-serif" font-size="14" lengthAdjust="spacing" textLength="117" x="629" y="1531.5342">AbstractFactory</text><rect fill="#E2E2F0" height="30.2969" rx="2.5" ry="2.5" style="stroke:#181818;stroke-width:0.5;" width="73" x="763" y="50"/><text fill="#000000" font-family="sans-serif" font-size="14" lengthAdjust="spacing" textLength="59" x="770" y="69.9951">AdvDAO</text><rect fill="#E2E2F0" height="30.2969" rx="2.5" ry="2.5" style="stroke:#181818;stroke-width:0.5;" width="73" x="763" y="1511.5391"/><text fill="#000000" font-family="sans-serif" font-size="14" lengthAdjust="spacing" textLength="59" x="770" y="1531.5342">AdvDAO</text><rect fill="#FFFFFF" height="1347.9766" style="stroke:#181818;stroke-width:1.0;" width="10" x="289.5" y="155.5625"/><rect fill="#FFFFFF" height="1318.8438" style="stroke:#181818;stroke-width:1.0;" width="10" x="447.5" y="184.6953"/><rect fill="#FFFFFF" height="1144.0469" style="stroke:#181818;stroke-width:1.0;" width="10" x="561.5" y="359.4922"/><rect fill="#FFFFFF" height="1114.9141" style="stroke:#181818;stroke-width:1.0;" width="10" x="682.5" y="388.625"/><rect fill="#FFFFFF" height="1056.6484" style="stroke:#181818;stroke-width:1.0;" width="10" x="794.5" y="446.8906"/><rect fill="#EEEEEE" height="3" style="stroke:#EEEEEE;stroke-width:1.0;" width="841" x="0" y="111.8633"/><line style="stroke:#000000;stroke-width:1.0;" x1="0" x2="841" y1="111.8633" y2="111.8633"/><line style="stroke:#000000;stroke-width:1.0;" x1="0" x2="841" y1="114.8633" y2="114.8633"/><rect fill="#EEEEEE" height="23.1328" style="stroke:#000000;stroke-width:2.0;" width="188" x="326.5" y="101.2969"/><text fill="#000000" font-family="sans-serif" font-size="13" font-weight="bold" lengthAdjust="spacing" textLength="169" x="332.5" y="117.3638">Create Advertisement</text><polygon fill="#181818" points="277.5,151.5625,287.5,155.5625,277.5,159.5625,281.5,155.5625" style="stroke:#181818;stroke-width:1.0;"/><line style="stroke:#181818;stroke-width:1.0;" x1="23.5" x2="283.5" y1="155.5625" y2="155.5625"/><text fill="#000000" font-family="sans-serif" font-size="13" lengthAdjust="spacing" textLength="239" x="30.5" y="150.4966">click on button Create Advertisement</text><polygon fill="#181818" points="435.5,180.6953,445.5,184.6953,435.5,188.6953,439.5,184.6953" style="stroke:#181818;stroke-width:1.0;"/><line style="stroke:#181818;stroke-width:1.0;" x1="299.5" x2="441.5" y1="184.6953" y2="184.6953"/><text fill="#000000" font-family="sans-serif" font-size="13" lengthAdjust="spacing" textLength="118" x="306.5" y="179.6294">PopupCreateAdv()</text><polygon fill="#181818" points="310.5,209.8281,300.5,213.8281,310.5,217.8281,306.5,213.8281" style="stroke:#181818;stroke-width:1.0;"/><line style="stroke:#181818;stroke-width:1.0;stroke-dasharray:2.0,2.0;" x1="304.5" x2="446.5" y1="213.8281" y2="213.8281"/><text fill="#000000" font-family="sans-serif" font-size="13" lengthAdjust="spacing" textLength="112" x="316.5" y="208.7622">showCreateAdv()</text><polygon fill="#181818" points="34.5,238.9609,24.5,242.9609,34.5,246.9609,30.5,242.9609" style="stroke:#181818;stroke-width:1.0;"/><line style="stroke:#181818;stroke-width:1.0;stroke-dasharray:2.0,2.0;" x1="28.5" x2="288.5" y1="242.9609" y2="242.9609"/><text fill="#000000" font-family="sans-serif" font-size="13" lengthAdjust="spacing" textLength="237" x="40.5" y="237.895">Display Create Advertisement Popup</text><polygon fill="#181818" points="277.5,268.0938,287.5,272.0938,277.5,276.0938,281.5,272.0938" style="stroke:#181818;stroke-width:1.0;"/><line style="stroke:#181818;stroke-width:1.0;" x1="23.5" x2="283.5" y1="272.0938" y2="272.0938"/><text fill="#000000" font-family="sans-serif" font-size="13" lengthAdjust="spacing" textLength="89" x="30.5" y="267.0278">fill in the form</text><polygon fill="#181818" points="277.5,297.2266,287.5,301.2266,277.5,305.2266,281.5,301.2266" style="stroke:#181818;stroke-width:1.0;"/><line style="stroke:#181818;stroke-width:1.0;" x1="23.5" x2="283.5" y1="301.2266" y2="301.2266"/><text fill="#000000" font-family="sans-serif" font-size="13" lengthAdjust="spacing" textLength="140" x="30.5" y="296.1606">click on button Create</text><polygon fill="#181818" points="435.5,326.3594,445.5,330.3594,435.5,334.3594,439.5,330.3594" style="stroke:#181818;stroke-width:1.0;"/><line style="stroke:#181818;stroke-width:1.0;" x1="299.5" x2="441.5" y1="330.3594" y2="330.3594"/><text fill="#000000" font-family="sans-serif" font-size="13" lengthAdjust="spacing" textLength="76" x="306.5" y="325.2935">createAdv()</text><polygon fill="#181818" points="549.5,355.4922,559.5,359.4922,549.5,363.4922,553.5,359.4922" style="stroke:#181818;stroke-width:1.0;"/><line style="stroke:#181818;stroke-width:1.0;" x1="457.5" x2="555.5" y1="359.4922" y2="359.4922"/><text fill="#000000" font-family="sans-serif" font-size="13" lengthAdjust="spacing" textLength="76" x="464.5" y="354.4263">createAdv()</text><polygon fill="#181818" points="670.5,384.625,680.5,388.625,670.5,392.625,674.5,388.625" style="stroke:#181818;stroke-width:1.0;"/><line style="stroke:#181818;stroke-width:1.0;" x1="571.5" x2="676.5" y1="388.625" y2="388.625"/><text fill="#000000" font-family="sans-serif" font-size="13" lengthAdjust="spacing" textLength="85" x="578.5" y="383.5591">getAdvDAO()</text><polygon fill="#181818" points="582.5,413.7578,572.5,417.7578,582.5,421.7578,578.5,417.7578" style="stroke:#181818;stroke-width:1.0;"/><line style="stroke:#181818;stroke-width:1.0;stroke-dasharray:2.0,2.0;" x1="576.5" x2="681.5" y1="417.7578" y2="417.7578"/><text fill="#000000" font-family="sans-serif" font-size="13" lengthAdjust="spacing" textLength="54" x="588.5" y="412.6919">AdvDAO</text><polygon fill="#181818" points="782.5,442.8906,792.5,446.8906,782.5,450.8906,786.5,446.8906" style="stroke:#181818;stroke-width:1.0;"/><line style="stroke:#181818;stroke-width:1.0;" x1="571.5" x2="788.5" y1="446.8906" y2="446.8906"/><text fill="#000000" font-family="sans-serif" font-size="13" lengthAdjust="spacing" textLength="76" x="578.5" y="441.8247">createAdv()</text><polygon fill="#181818" points="582.5,472.0234,572.5,476.0234,582.5,480.0234,578.5,476.0234" style="stroke:#181818;stroke-width:1.0;"/><line style="stroke:#181818;stroke-width:1.0;stroke-dasharray:2.0,2.0;" x1="576.5" x2="793.5" y1="476.0234" y2="476.0234"/><text fill="#000000" font-family="sans-serif" font-size="13" lengthAdjust="spacing" textLength="26" x="588.5" y="470.9575">true</text><polygon fill="#181818" points="468.5,501.1563,458.5,505.1563,468.5,509.1563,464.5,505.1563" style="stroke:#181818;stroke-width:1.0;"/><line style="stroke:#181818;stroke-width:1.0;stroke-dasharray:2.0,2.0;" x1="462.5" x2="560.5" y1="505.1563" y2="505.1563"/><text fill="#000000" font-family="sans-serif" font-size="13" lengthAdjust="spacing" textLength="26" x="474.5" y="500.0903">true</text><polygon fill="#181818" points="310.5,530.2891,300.5,534.2891,310.5,538.2891,306.5,534.2891" style="stroke:#181818;stroke-width:1.0;"/><line style="stroke:#181818;stroke-width:1.0;stroke-dasharray:2.0,2.0;" x1="304.5" x2="446.5" y1="534.2891" y2="534.2891"/><text fill="#000000" font-family="sans-serif" font-size="13" lengthAdjust="spacing" textLength="124" x="316.5" y="529.2231">DisplayStatus(true)</text><polygon fill="#181818" points="34.5,559.4219,24.5,563.4219,34.5,567.4219,30.5,563.4219" style="stroke:#181818;stroke-width:1.0;"/><line style="stroke:#181818;stroke-width:1.0;stroke-dasharray:2.0,2.0;" x1="28.5" x2="288.5" y1="563.4219" y2="563.4219"/><text fill="#000000" font-family="sans-serif" font-size="13" lengthAdjust="spacing" textLength="163" x="40.5" y="558.356">Display Success Message</text><rect fill="#EEEEEE" height="3" style="stroke:#EEEEEE;stroke-width:1.0;" width="841" x="0" y="591.9883"/><line style="stroke:#000000;stroke-width:1.0;" x1="0" x2="841" y1="591.9883" y2="591.9883"/><line style="stroke:#000000;stroke-width:1.0;" x1="0" x2="841" y1="594.9883" y2="594.9883"/><rect fill="#EEEEEE" height="23.1328" style="stroke:#000000;stroke-width:2.0;" width="190" x="325.5" y="581.4219"/><text fill="#000000" font-family="sans-serif" font-size="13" font-weight="bold" lengthAdjust="spacing" textLength="171" x="331.5" y="597.4888">Update Advertisement</text><polygon fill="#181818" points="277.5,631.6875,287.5,635.6875,277.5,639.6875,281.5,635.6875" style="stroke:#181818;stroke-width:1.0;"/><line style="stroke:#181818;stroke-width:1.0;" x1="23.5" x2="283.5" y1="635.6875" y2="635.6875"/><text fill="#000000" font-family="sans-serif" font-size="13" lengthAdjust="spacing" textLength="242" x="30.5" y="630.6216">click on button Update Advertisement</text><polygon fill="#181818" points="435.5,660.8203,445.5,664.8203,435.5,668.8203,439.5,664.8203" style="stroke:#181818;stroke-width:1.0;"/><line style="stroke:#181818;stroke-width:1.0;" x1="299.5" x2="441.5" y1="664.8203" y2="664.8203"/><text fill="#000000" font-family="sans-serif" font-size="13" lengthAdjust="spacing" textLength="121" x="306.5" y="659.7544">PopupUpdateAdv()</text><polygon fill="#181818" points="310.5,689.9531,300.5,693.9531,310.5,697.9531,306.5,693.9531" style="stroke:#181818;stroke-width:1.0;"/><line style="stroke:#181818;stroke-width:1.0;stroke-dasharray:2.0,2.0;" x1="304.5" x2="446.5" y1="693.9531" y2="693.9531"/><text fill="#000000" font-family="sans-serif" font-size="13" lengthAdjust="spacing" textLength="115" x="316.5" y="688.8872">showUpdateAdv()</text><polygon fill="#181818" points="34.5,719.0859,24.5,723.0859,34.5,727.0859,30.5,723.0859" style="stroke:#181818;stroke-width:1.0;"/><line style="stroke:#181818;stroke-width:1.0;stroke-dasharray:2.0,2.0;" x1="28.5" x2="288.5" y1="723.0859" y2="723.0859"/><text fill="#000000" font-family="sans-serif" font-size="13" lengthAdjust="spacing" textLength="240" x="40.5" y="718.02">Display Update Advertisement Popup</text><polygon fill="#181818" points="277.5,748.2188,287.5,752.2188,277.5,756.2188,281.5,752.2188" style="stroke:#181818;stroke-width:1.0;"/><line style="stroke:#181818;stroke-width:1.0;" x1="23.5" x2="283.5" y1="752.2188" y2="752.2188"/><text fill="#000000" font-family="sans-serif" font-size="13" lengthAdjust="spacing" textLength="89" x="30.5" y="747.1528">fill in the form</text><polygon fill="#181818" points="277.5,777.3516,287.5,781.3516,277.5,785.3516,281.5,781.3516" style="stroke:#181818;stroke-width:1.0;"/><line style="stroke:#181818;stroke-width:1.0;" x1="23.5" x2="283.5" y1="781.3516" y2="781.3516"/><text fill="#000000" font-family="sans-serif" font-size="13" lengthAdjust="spacing" textLength="143" x="30.5" y="776.2856">click on button Update</text><polygon fill="#181818" points="435.5,806.4844,445.5,810.4844,435.5,814.4844,439.5,810.4844" style="stroke:#181818;stroke-width:1.0;"/><line style="stroke:#181818;stroke-width:1.0;" x1="299.5" x2="441.5" y1="810.4844" y2="810.4844"/><text fill="#000000" font-family="sans-serif" font-size="13" lengthAdjust="spacing" textLength="80" x="306.5" y="805.4185">updateAdv()</text><polygon fill="#181818" points="549.5,835.6172,559.5,839.6172,549.5,843.6172,553.5,839.6172" style="stroke:#181818;stroke-width:1.0;"/><line style="stroke:#181818;stroke-width:1.0;" x1="457.5" x2="555.5" y1="839.6172" y2="839.6172"/><text fill="#000000" font-family="sans-serif" font-size="13" lengthAdjust="spacing" textLength="80" x="464.5" y="834.5513">updateAdv()</text><polygon fill="#181818" points="670.5,864.75,680.5,868.75,670.5,872.75,674.5,868.75" style="stroke:#181818;stroke-width:1.0;"/><line style="stroke:#181818;stroke-width:1.0;" x1="571.5" x2="676.5" y1="868.75" y2="868.75"/><text fill="#000000" font-family="sans-serif" font-size="13" lengthAdjust="spacing" textLength="85" x="578.5" y="863.6841">getAdvDAO()</text><polygon fill="#181818" points="582.5,893.8828,572.5,897.8828,582.5,901.8828,578.5,897.8828" style="stroke:#181818;stroke-width:1.0;"/><line style="stroke:#181818;stroke-width:1.0;stroke-dasharray:2.0,2.0;" x1="576.5" x2="681.5" y1="897.8828" y2="897.8828"/><text fill="#000000" font-family="sans-serif" font-size="13" lengthAdjust="spacing" textLength="54" x="588.5" y="892.8169">AdvDAO</text><polygon fill="#181818" points="782.5,923.0156,792.5,927.0156,782.5,931.0156,786.5,927.0156" style="stroke:#181818;stroke-width:1.0;"/><line style="stroke:#181818;stroke-width:1.0;" x1="571.5" x2="788.5" y1="927.0156" y2="927.0156"/><text fill="#000000" font-family="sans-serif" font-size="13" lengthAdjust="spacing" textLength="80" x="578.5" y="921.9497">updateAdv()</text><polygon fill="#181818" points="582.5,952.1484,572.5,956.1484,582.5,960.1484,578.5,956.1484" style="stroke:#181818;stroke-width:1.0;"/><line style="stroke:#181818;stroke-width:1.0;stroke-dasharray:2.0,2.0;" x1="576.5" x2="793.5" y1="956.1484" y2="956.1484"/><text fill="#000000" font-family="sans-serif" font-size="13" lengthAdjust="spacing" textLength="26" x="588.5" y="951.0825">true</text><polygon fill="#181818" points="468.5,981.2813,458.5,985.2813,468.5,989.2813,464.5,985.2813" style="stroke:#181818;stroke-width:1.0;"/><line style="stroke:#181818;stroke-width:1.0;stroke-dasharray:2.0,2.0;" x1="462.5" x2="560.5" y1="985.2813" y2="985.2813"/><text fill="#000000" font-family="sans-serif" font-size="13" lengthAdjust="spacing" textLength="26" x="474.5" y="980.2153">true</text><polygon fill="#181818" points="310.5,1010.4141,300.5,1014.4141,310.5,1018.4141,306.5,1014.4141" style="stroke:#181818;stroke-width:1.0;"/><line style="stroke:#181818;stroke-width:1.0;stroke-dasharray:2.0,2.0;" x1="304.5" x2="446.5" y1="1014.4141" y2="1014.4141"/><text fill="#000000" font-family="sans-serif" font-size="13" lengthAdjust="spacing" textLength="124" x="316.5" y="1009.3481">DisplayStatus(true)</text><polygon fill="#181818" points="34.5,1039.5469,24.5,1043.5469,34.5,1047.5469,30.5,1043.5469" style="stroke:#181818;stroke-width:1.0;"/><line style="stroke:#181818;stroke-width:1.0;stroke-dasharray:2.0,2.0;" x1="28.5" x2="288.5" y1="1043.5469" y2="1043.5469"/><text fill="#000000" font-family="sans-serif" font-size="13" lengthAdjust="spacing" textLength="163" x="40.5" y="1038.481">Display Success Message</text><rect fill="#EEEEEE" height="3" style="stroke:#EEEEEE;stroke-width:1.0;" width="841" x="0" y="1072.1133"/><line style="stroke:#000000;stroke-width:1.0;" x1="0" x2="841" y1="1072.1133" y2="1072.1133"/><line style="stroke:#000000;stroke-width:1.0;" x1="0" x2="841" y1="1075.1133" y2="1075.1133"/><rect fill="#EEEEEE" height="23.1328" style="stroke:#000000;stroke-width:2.0;" width="186" x="327.5" y="1061.5469"/><text fill="#000000" font-family="sans-serif" font-size="13" font-weight="bold" lengthAdjust="spacing" textLength="167" x="333.5" y="1077.6138">Delete Advertisement</text><polygon fill="#181818" points="277.5,1111.8125,287.5,1115.8125,277.5,1119.8125,281.5,1115.8125" style="stroke:#181818;stroke-width:1.0;"/><line style="stroke:#181818;stroke-width:1.0;" x1="23.5" x2="283.5" y1="1115.8125" y2="1115.8125"/><text fill="#000000" font-family="sans-serif" font-size="13" lengthAdjust="spacing" textLength="238" x="30.5" y="1110.7466">click on button Delete Advertisement</text><polygon fill="#181818" points="435.5,1140.9453,445.5,1144.9453,435.5,1148.9453,439.5,1144.9453" style="stroke:#181818;stroke-width:1.0;"/><line style="stroke:#181818;stroke-width:1.0;" x1="299.5" x2="441.5" y1="1144.9453" y2="1144.9453"/><text fill="#000000" font-family="sans-serif" font-size="13" lengthAdjust="spacing" textLength="117" x="306.5" y="1139.8794">PopupDeleteAdv()</text><polygon fill="#181818" points="310.5,1170.0781,300.5,1174.0781,310.5,1178.0781,306.5,1174.0781" style="stroke:#181818;stroke-width:1.0;"/><line style="stroke:#181818;stroke-width:1.0;stroke-dasharray:2.0,2.0;" x1="304.5" x2="446.5" y1="1174.0781" y2="1174.0781"/><text fill="#000000" font-family="sans-serif" font-size="13" lengthAdjust="spacing" textLength="111" x="316.5" y="1169.0122">showDeleteAdv()</text><polygon fill="#181818" points="34.5,1199.2109,24.5,1203.2109,34.5,1207.2109,30.5,1203.2109" style="stroke:#181818;stroke-width:1.0;"/><line style="stroke:#181818;stroke-width:1.0;stroke-dasharray:2.0,2.0;" x1="28.5" x2="288.5" y1="1203.2109" y2="1203.2109"/><text fill="#000000" font-family="sans-serif" font-size="13" lengthAdjust="spacing" textLength="236" x="40.5" y="1198.145">Display Delete Advertisement Popup</text><polygon fill="#181818" points="277.5,1228.3438,287.5,1232.3438,277.5,1236.3438,281.5,1232.3438" style="stroke:#181818;stroke-width:1.0;"/><line style="stroke:#181818;stroke-width:1.0;" x1="23.5" x2="283.5" y1="1232.3438" y2="1232.3438"/><text fill="#000000" font-family="sans-serif" font-size="13" lengthAdjust="spacing" textLength="80" x="30.5" y="1227.2778">click confirm</text><polygon fill="#181818" points="435.5,1257.4766,445.5,1261.4766,435.5,1265.4766,439.5,1261.4766" style="stroke:#181818;stroke-width:1.0;"/><line style="stroke:#181818;stroke-width:1.0;" x1="299.5" x2="441.5" y1="1261.4766" y2="1261.4766"/><text fill="#000000" font-family="sans-serif" font-size="13" lengthAdjust="spacing" textLength="75" x="306.5" y="1256.4106">deleteAdv()</text><polygon fill="#181818" points="549.5,1286.6094,559.5,1290.6094,549.5,1294.6094,553.5,1290.6094" style="stroke:#181818;stroke-width:1.0;"/><line style="stroke:#181818;stroke-width:1.0;" x1="457.5" x2="555.5" y1="1290.6094" y2="1290.6094"/><text fill="#000000" font-family="sans-serif" font-size="13" lengthAdjust="spacing" textLength="75" x="464.5" y="1285.5435">deleteAdv()</text><polygon fill="#181818" points="670.5,1315.7422,680.5,1319.7422,670.5,1323.7422,674.5,1319.7422" style="stroke:#181818;stroke-width:1.0;"/><line style="stroke:#181818;stroke-width:1.0;" x1="571.5" x2="676.5" y1="1319.7422" y2="1319.7422"/><text fill="#000000" font-family="sans-serif" font-size="13" lengthAdjust="spacing" textLength="85" x="578.5" y="1314.6763">getAdvDAO()</text><polygon fill="#181818" points="582.5,1344.875,572.5,1348.875,582.5,1352.875,578.5,1348.875" style="stroke:#181818;stroke-width:1.0;"/><line style="stroke:#181818;stroke-width:1.0;stroke-dasharray:2.0,2.0;" x1="576.5" x2="681.5" y1="1348.875" y2="1348.875"/><text fill="#000000" font-family="sans-serif" font-size="13" lengthAdjust="spacing" textLength="54" x="588.5" y="1343.8091">AdvDAO</text><polygon fill="#181818" points="782.5,1374.0078,792.5,1378.0078,782.5,1382.0078,786.5,1378.0078" style="stroke:#181818;stroke-width:1.0;"/><line style="stroke:#181818;stroke-width:1.0;" x1="571.5" x2="788.5" y1="1378.0078" y2="1378.0078"/><text fill="#000000" font-family="sans-serif" font-size="13" lengthAdjust="spacing" textLength="75" x="578.5" y="1372.9419">deleteAdv()</text><polygon fill="#181818" points="582.5,1403.1406,572.5,1407.1406,582.5,1411.1406,578.5,1407.1406" style="stroke:#181818;stroke-width:1.0;"/><line style="stroke:#181818;stroke-width:1.0;stroke-dasharray:2.0,2.0;" x1="576.5" x2="793.5" y1="1407.1406" y2="1407.1406"/><text fill="#000000" font-family="sans-serif" font-size="13" lengthAdjust="spacing" textLength="26" x="588.5" y="1402.0747">true</text><polygon fill="#181818" points="468.5,1432.2734,458.5,1436.2734,468.5,1440.2734,464.5,1436.2734" style="stroke:#181818;stroke-width:1.0;"/><line style="stroke:#181818;stroke-width:1.0;stroke-dasharray:2.0,2.0;" x1="462.5" x2="560.5" y1="1436.2734" y2="1436.2734"/><text fill="#000000" font-family="sans-serif" font-size="13" lengthAdjust="spacing" textLength="26" x="474.5" y="1431.2075">true</text><polygon fill="#181818" points="310.5,1461.4063,300.5,1465.4063,310.5,1469.4063,306.5,1465.4063" style="stroke:#181818;stroke-width:1.0;"/><line style="stroke:#181818;stroke-width:1.0;stroke-dasharray:2.0,2.0;" x1="304.5" x2="446.5" y1="1465.4063" y2="1465.4063"/><text fill="#000000" font-family="sans-serif" font-size="13" lengthAdjust="spacing" textLength="124" x="316.5" y="1460.3403">DisplayStatus(true)</text><polygon fill="#181818" points="34.5,1490.5391,24.5,1494.5391,34.5,1498.5391,30.5,1494.5391" style="stroke:#181818;stroke-width:1.0;"/><line style="stroke:#181818;stroke-width:1.0;stroke-dasharray:2.0,2.0;" x1="28.5" x2="288.5" y1="1494.5391" y2="1494.5391"/><text fill="#000000" font-family="sans-serif" font-size="13" lengthAdjust="spacing" textLength="163" x="40.5" y="1489.4731">Display Success Message</text><!--SRC=[pPBTQW8n48Nlzoa6hopY2mWhY5BmebIGVO2OZHeQDqios-BRTv9iQpHPeJ_GthYxET-C9pE7STG6AYjCKRJCeEIoPGt2Q56_RjX1Z81PgDQ9jjGD6gsKC9wuV2Ra8-Ei3dt2wmsnisWOHzB8oVc3S-z9gzNYsUlqB8goXAKH30MG8WYquYG8BCl2NGUcS_8zcS0Ck9By1NG3kmwH7hcoebgxYiizVEL6jrqRSAB73yL5Xwd_0uBiKR_5ZElaD6TY1YjfMyNEUQ- -VsIN-BrK2cG3U1Imr-PqhUQlafXtv83hUR-5C9a82iSzuCRlYOF0CFX0k7D_kvwUGL2ZQlfAUjFPTHMQJdpMt5htOcxI_IotoB2pOuSDJNlRSIwiXIVweHJxj5HjdKtB_GddgdBpzgiCyFsen4pUVDReZwCIkkQiTmEkett5I1AKxyRafk-_2CbAAF7raEIg1aCIuFiXYPcy-QpHJ4Y2LQwRlNG9IJtL0tQYHSJ8Rsu_xllNsty7]--></g></svg>